<?xml version="1.0" encoding="UTF-8"?>
<!DOCTYPE svg PUBLIC "-//W3C//DTD SVG 1.1//EN" "http://www.w3.org/Graphics/SVG/1.1/DTD/svg11.dtd">
<!-- Creator: CorelDRAW 2021 (64-Bit) -->
<svg xmlns="http://www.w3.org/2000/svg" xml:space="preserve" width="3148px" height="519px" version="1.1" style="shape-rendering:geometricPrecision; text-rendering:geometricPrecision; image-rendering:optimizeQuality; fill-rule:evenodd; clip-rule:evenodd"
viewBox="0 0 3779.47 623.29"
 xmlns:xlink="http://www.w3.org/1999/xlink"
 xmlns:xodm="http://www.corel.com/coreldraw/odm/2003">
 <defs>
  <style type="text/css">
   <![CDATA[
    .fil1 {fill:#1A1A1A}
    .fil3 {fill:#6B6B6B}
    .fil5 {fill:#727376;fill-rule:nonzero}
    .fil0 {fill:#1A1A1A;fill-rule:nonzero}
    .fil4 {fill:#4E148F;fill-rule:nonzero}
    .fil2 {fill:#6B6B6B;fill-rule:nonzero}
    .fil6 {fill:url(#id0);fill-rule:nonzero}
    .fil8 {fill:url(#id1);fill-rule:nonzero}
    .fil7 {fill:url(#id2);fill-rule:nonzero}
   ]]>
  </style>
  <radialGradient id="id0" gradientUnits="userSpaceOnUse" gradientTransform="matrix(-1.00001 -1.22466E-16 1.22466E-16 -1.00001 614 624)" cx="306.96" cy="312.2" r="306.96" fx="306.96" fy="312.2">
   <stop offset="0" style="stop-opacity:1; stop-color:#660C6E"/>
   <stop offset="0.25098" style="stop-opacity:1; stop-color:#620D73"/>
   <stop offset="0.780392" style="stop-opacity:1; stop-color:#4E148F"/>
   <stop offset="1" style="stop-opacity:1; stop-color:#320869"/>
  </radialGradient>
  <radialGradient id="id1" gradientUnits="userSpaceOnUse" gradientTransform="matrix(2.28998 -1.57999 1.57999 2.28998 -989 246)" cx="400.23" cy="299.18" r="78.16" fx="400.23" fy="299.18">
   <stop offset="0" style="stop-opacity:1; stop-color:#C4C6C7"/>
   <stop offset="0.560784" style="stop-opacity:1; stop-color:#C4C6C7"/>
   <stop offset="0.788235" style="stop-opacity:1; stop-color:#C4C6C7"/>
   <stop offset="0.929412" style="stop-opacity:1; stop-color:#888A8D"/>
   <stop offset="1" style="stop-opacity:1; stop-color:#310669"/>
  </radialGradient>
  <radialGradient id="id2" gradientUnits="userSpaceOnUse" gradientTransform="matrix(-2.28998 1.57999 -1.57999 -2.28998 1224 749)" cx="213.39" cy="330.08" r="78.16" fx="213.39" fy="330.08">
   <stop offset="0" style="stop-opacity:1; stop-color:#C4C6C7"/>
   <stop offset="0.560784" style="stop-opacity:1; stop-color:#C4C6C7"/>
   <stop offset="0.788235" style="stop-opacity:1; stop-color:#C4C6C7"/>
   <stop offset="0.929412" style="stop-opacity:1; stop-color:#888A8D"/>
   <stop offset="1" style="stop-opacity:1; stop-color:#3D1E66"/>
  </radialGradient>
 </defs>
 <g id="__x0023_Layer_x0020_1">
  <metadata id="CorelCorpID_0Corel-Layer"/>
  <g id="_2048537244624">
   <path class="fil0" d="M691.58 307.02c-0.5,10.52 -1,19.54 -1,27.57 0,70.16 40.6,95.72 135.82,95.72l123.8 0c109.76,0 150.35,-25.06 150.35,-108.76 0,-45.11 -7.02,-72.17 -34.58,-88.71 -21.05,-12.53 -53.63,-14.53 -99.24,-14.53l-130.81 0c-70.16,0 -99.23,-8.02 -99.23,-61.65 0,-49.12 24.56,-60.64 96.23,-60.64l124.29 0c67.66,0 90.21,8.52 90.21,61.14l0 5.52 43.61 0 0 -10.53c0,-33.58 -7.02,-57.13 -24.56,-72.17 -26.06,-21.55 -70.16,-23.05 -137.32,-23.05l-82.7 0c-110.26,0 -156.87,20.55 -156.87,101.74 0,75.17 37.09,100.24 131.81,100.24l153.86 0c57.14,0 80.2,8.52 80.2,60.13 0,61.15 -30.58,70.68 -119.29,70.68l-95.22 0c-75.18,0 -106.76,-11.53 -106.76,-61.15 0,-5.01 0.51,-12.03 1.01,-21.55l-43.61 0z"/>
   <polygon class="fil0" points="1247.4,425.8 1304.03,425.8 1385.23,203.27 1463.41,425.8 1520.04,425.8 1641.33,168.19 1596.22,168.19 1494.98,389.72 1416.8,168.19 1354.65,168.19 1275.96,389.72 1179.23,168.19 1132.13,168.19 "/>
   <path class="fil0" d="M1715 268.93c0,-51.62 26.56,-66.66 87.71,-66.66l63.65 0c62.65,0 87.71,9.52 87.71,60.64l0 6.02 -239.07 0zm152.36 -104.25l-64.15 0c-93.72,0 -129.31,32.08 -129.31,112.27l0 41.09c0,79.19 36.09,111.27 129.31,111.27l77.18 0c77.18,0 116.78,-26.57 116.78,-75.68l0 -6.52 -42.6 0 0 2.51c0,30.07 -27.07,43.6 -83.7,43.6l-67.16 0c-67.16,0 -88.71,-20.05 -88.71,-73.17l0 -14.03 281.67 0c0.5,-7.02 0.5,-13.54 0.5,-20.05 0,-91.72 -34.58,-121.29 -129.81,-121.29z"/>
   <path class="fil0" d="M2098.91 268.93c0,-51.62 26.56,-66.66 87.71,-66.66l63.65 0c62.65,0 87.71,9.52 87.71,60.64l0 6.02 -239.07 0zm152.36 -104.25l-64.15 0c-93.72,0 -129.31,32.08 -129.31,112.27l0 41.09c0,79.19 36.09,111.27 129.31,111.27l77.18 0c77.18,0 116.78,-26.57 116.78,-75.68l0 -6.52 -42.6 0 0 2.51c0,30.07 -27.07,43.6 -83.7,43.6l-67.16 0c-67.16,0 -88.71,-20.05 -88.71,-73.17l0 -14.03 281.66 0c0.51,-7.02 0.51,-13.54 0.51,-20.05 0,-91.72 -34.59,-121.29 -129.81,-121.29z"/>
   <polygon class="fil1" points="2544.95,159.26 2498.37,159.26 2498.37,425.8 2498.37,428.67 2495.5,428.67 2460.07,428.67 2457.21,428.67 2457.21,425.8 2457.21,159.26 2410.62,159.26 2407.75,159.26 2407.75,156.39 2407.75,120.23 2407.75,117.36 2410.62,117.36 2457.21,117.36 2457.21,10.99 2457.21,8.12 2460.07,8.12 2495.5,8.12 2498.37,8.12 2498.37,10.99 2498.37,117.36 2544.95,117.36 2547.82,117.36 2547.82,120.23 2547.82,156.39 2547.82,159.26 "/>
   <path class="fil0" d="M2637.9 307.02c-0.5,10.52 -1,19.54 -1,27.57 0,70.16 40.6,95.72 135.82,95.72l123.8 0c109.75,0 150.35,-25.06 150.35,-108.76 0,-45.11 -7.02,-72.17 -34.58,-88.71 -21.05,-12.53 -53.63,-14.53 -99.24,-14.53l-130.81 0c-70.16,0 -99.23,-8.02 -99.23,-61.65 0,-49.12 24.56,-60.64 96.23,-60.64l124.29 0c67.66,0 90.21,8.52 90.21,61.14l0 5.52 43.6 0 0 -10.53c0,-33.58 -7.01,-57.13 -24.55,-72.17 -26.06,-21.55 -70.17,-23.05 -137.33,-23.05l-82.69 0c-110.26,0 -156.87,20.55 -156.87,101.74 0,75.17 37.09,100.24 131.81,100.24l153.86 0c57.14,0 80.2,8.52 80.2,60.13 0,61.15 -30.58,70.68 -119.29,70.68l-95.23 0c-75.17,0 -106.75,-11.53 -106.75,-61.15 0,-5.01 0.5,-12.03 1.01,-21.55l-43.61 0z"/>
   <path class="fil0" d="M3244.84 391.21c-72.17,0 -92.72,-14.53 -92.72,-80.18l0 -30.57c0,-63.65 21.05,-78.19 92.72,-78.19l67.16 0c71.67,0 93.22,14.54 93.22,78.19l0 30.57c0,65.65 -21.05,80.18 -93.22,80.18l-67.16 0zm-10.53 38.1l88.71 0c90.22,0 123.29,-33.08 123.29,-113.77l0 -40.6c0,-78.18 -35.08,-110.26 -123.29,-110.26l-88.71 0c-88.2,0 -123.29,32.08 -123.29,110.26l0 40.6c0,80.69 33.08,113.77 123.29,113.77z"/>
   <path class="fil0" d="M3596.25 159.26l-48.06 0 0 266.54 0 2.87 -2.87 0 -35.43 0 -2.87 0 0 -2.87 0 -266.54 -15.58 0 -2.87 0 0 -2.87 0 -36.16 0 -2.87 2.87 0 15.7 0c0.47,-11.68 0.99,-21.25 1.57,-28.71 0.64,-8.28 1.37,-14.22 2.2,-17.79l0.01 0c2.02,-9.13 5.5,-17.81 10.39,-26 4.86,-8.15 11.16,-15.84 18.86,-23.04l0 -0.01c7.82,-7.25 16.01,-12.69 24.56,-16.32l0.01 0c8.62,-3.66 17.61,-5.49 26.96,-5.49l4.55 0 2.87 0 0 2.87 0 33.95 0 2.49 -2.48 0.35c-6.66,0.93 -12.84,2.95 -18.5,6.04 -5.69,3.09 -10.92,7.3 -15.68,12.6 -4.76,5.29 -8.35,10.9 -10.73,16.81 -2.35,5.85 -3.54,12.03 -3.54,18.54l0 23.71 48.06 0 2.87 0 0 2.87 0 36.16 0 2.87 -2.87 0z"/>
   <polygon class="fil0" points="3775.61,159.26 3729.02,159.26 3729.02,425.8 3729.02,428.67 3726.15,428.67 3690.73,428.67 3687.86,428.67 3687.86,425.8 3687.86,159.26 3641.27,159.26 3638.4,159.26 3638.4,156.39 3638.4,120.23 3638.4,117.36 3641.27,117.36 3687.86,117.36 3687.86,10.99 3687.86,8.12 3690.73,8.12 3726.15,8.12 3729.02,8.12 3729.02,10.99 3729.02,117.36 3775.61,117.36 3778.47,117.36 3778.47,120.23 3778.47,156.39 3778.47,159.26 "/>
  </g>
  <g id="_2048537258064">
   <g>
    <path class="fil2" d="M2795.08 587.98c-0.13,3.02 -0.26,5.6 -0.26,7.9 0,20.09 10.54,27.41 35.26,27.41l32.13 0c28.49,0 39.03,-7.18 39.03,-31.14 0,-12.92 -1.82,-20.67 -8.98,-25.41 -5.46,-3.58 -13.92,-4.16 -25.76,-4.16l-33.95 0c-18.21,0 -25.76,-2.29 -25.76,-17.65 0,-14.06 6.38,-17.36 24.98,-17.36l32.26 0c17.56,0 23.42,2.44 23.42,17.5l0 1.58 11.32 0 0 -3.01c0,-9.62 -1.83,-16.36 -6.38,-20.67 -6.76,-6.17 -18.21,-6.6 -35.64,-6.6l-21.47 0c-28.62,0 -40.72,5.89 -40.72,29.14 0,21.52 9.63,28.7 34.22,28.7l39.94 0c14.83,0 20.81,2.44 20.81,17.22 0,17.51 -7.94,20.23 -30.96,20.23l-24.72 0c-19.51,0 -27.71,-3.3 -27.71,-17.5 0,-1.44 0.13,-3.45 0.26,-6.18l-11.32 0z"/>
    <path class="fil2" d="M2968.38 547.23l-19.25 0c-19.91,0 -28.62,6.02 -28.62,21.24l0 2.01 11.19 0 0 -2.16c0,-9.04 4.81,-10.04 19.12,-10.04l15.87 0c15.61,0 21.6,3.3 21.6,16.64l0 10.05c-4.82,-6.31 -12.23,-8.75 -22.9,-8.75l-18.73 0c-22.38,0 -30.7,5.88 -30.7,22.82 0,17.65 7.93,23.96 30.96,23.96l17.82 0c12.23,0 19.64,-2.01 23.55,-10.76l0 9.76 10.14 0 0 -47.65c0,-18.8 -9.49,-27.12 -30.05,-27.12zm19.25 55.25c0,8.18 -7.02,9.61 -21.98,9.61l-16 0c-17.69,0 -22.12,-1.43 -22.12,-13.63 0,-10.76 5.6,-12.2 22.12,-12.2l16 0c14.96,0 21.98,1.58 21.98,9.76l0 6.46z"/>
    <path class="fil2" d="M3057.75 622l10.67 0 0 -73.77 -10.67 0 0 73.77zm0 -90.42l10.67 0 0 -13.92 -10.67 0 0 13.92z"/>
    <path class="fil2" d="M3117.73 589.28l27.45 0c10.54,0 13.53,2.72 13.53,10.76 0,10.48 -2.21,12.05 -13.66,12.05l-29.92 0c-12.88,0 -17.04,-1.29 -17.04,-14.2l0 -1.3 -9.63 0c0.26,20.1 7.15,26.55 24.33,26.55l26.93 0c20.29,0 29.92,-3.73 29.92,-19.37 0,-8.18 0,-13.92 -4.56,-18.94 -4.68,-5.31 -12.36,-5.6 -24.32,-5.6l-18.22 0.14c-17.95,0 -23.28,-0.71 -23.28,-10.76 0,-9.76 5.07,-10.48 23.28,-10.48l10.41 0c16.78,0 23.94,1.15 23.94,8.9l0 3.02 10.15 0 0 -4.88c0,-12.78 -9.89,-17.8 -30.31,-17.8l-19 0c-21.07,0 -29.01,5.45 -29.01,21.24 0,17.94 6.89,20.67 29.01,20.67z"/>
    <path class="fil2" d="M3272.81 547.23l-19.25 0c-19.9,0 -28.62,6.02 -28.62,21.24l0 2.01 11.19 0 0 -2.16c0,-9.04 4.81,-10.04 19.12,-10.04l15.87 0c15.61,0 21.6,3.3 21.6,16.64l0 10.05c-4.82,-6.31 -12.23,-8.75 -22.9,-8.75l-18.73 0c-22.38,0 -30.7,5.88 -30.7,22.82 0,17.65 7.93,23.96 30.96,23.96l17.82 0c12.23,0 19.64,-2.01 23.55,-10.76l0 9.76 10.14 0 0 -47.65c0,-18.8 -9.49,-27.12 -30.05,-27.12zm19.26 55.25c0,8.18 -7.03,9.61 -21.99,9.61l-16 0c-17.69,0 -22.11,-1.43 -22.11,-13.63 0,-10.76 5.59,-12.2 22.11,-12.2l16 0c14.96,0 21.99,1.58 21.99,9.76l0 6.46z"/>
    <path class="fil2" d="M3390.43 573.78l9.89 0 0 -1.87c0,-18.23 -9.76,-24.68 -31.75,-24.68l-15.87 0c-21.59,0 -31.87,9.04 -31.87,28.56l0 18.65c0,19.52 10.41,28.56 31.87,28.56l19.13 0c20.42,0 29.4,-8.04 29.4,-26.84l0 -2 -10.02 0 0 0.86c0,13.63 -6.11,17.07 -21.85,17.07l-15.88 0c-16.26,0 -21.98,-4.01 -21.98,-20.37l0 -17.08c0,-12.77 7.28,-16.65 21.72,-16.65l15.62 0c15.74,0 21.46,1.72 21.59,15.79z"/>
    <path class="fil2" d="M3461.88 622l10.67 0 0 -73.77 -10.67 0 0 73.77zm0 -90.42l10.67 0 0 -13.92 -10.67 0 0 13.92z"/>
    <path class="fil2" d="M3526.67 612.09c-18.73,0 -24.07,-4.16 -24.07,-22.96l0 -8.75c0,-18.23 5.47,-22.39 24.07,-22.39l17.43 0c18.61,0 24.2,4.16 24.2,22.39l0 8.75c0,18.8 -5.46,22.96 -24.2,22.96l-17.43 0zm-2.73 10.91l23.02 0c23.42,0 32.01,-9.47 32.01,-32.58l0 -11.62c0,-22.39 -9.11,-31.57 -32.01,-31.57l-23.02 0c-22.9,0 -32,9.18 -32,31.57l0 11.62c0,23.11 8.58,32.58 32,32.58z"/>
    <path class="fil2" d="M3597.85 622l10.53 0 0 -44.06c0,-14.78 9.37,-19.81 30.96,-19.81 13.01,0 21.34,1.73 24.98,4.6 4.03,3.15 4.42,7.6 4.42,14.35l0 44.92 10.54 0 0 -48.08c0,-20.52 -10.54,-26.69 -36.94,-26.69 -18.09,0 -28.62,3.58 -33.96,14.64l0 -13.64 -10.53 0 0 73.77z"/>
    <path class="fil2" d="M3727.56 589.28l27.45 0c10.54,0 13.53,2.72 13.53,10.76 0,10.48 -2.21,12.05 -13.66,12.05l-29.92 0c-12.88,0 -17.04,-1.29 -17.04,-14.2l0 -1.3 -9.63 0c0.26,20.1 7.15,26.55 24.33,26.55l26.93 0c20.29,0 29.92,-3.73 29.92,-19.37 0,-8.18 0,-13.92 -4.56,-18.94 -4.68,-5.31 -12.36,-5.6 -24.32,-5.6l-18.22 0.14c-17.95,0 -23.28,-0.71 -23.28,-10.76 0,-9.76 5.07,-10.48 23.28,-10.48l10.41 0c16.78,0 23.94,1.15 23.94,8.9l0 3.02 10.15 0 0 -4.88c0,-12.78 -9.89,-17.8 -30.32,-17.8l-18.99 0c-21.07,0 -29.01,5.45 -29.01,21.24 0,17.94 6.89,20.67 29.01,20.67z"/>
    <path class="fil3" d="M3210.09 550.41l-11.45 0 0 71.59 0 1.1 -1 0 -8.67 0 -1 0 0 -1.1 0 -71.59 -3.51 0 -1 0 0 -1.1 0 -9.76 0 -1.1 1 0 3.56 0c0.11,-3.02 0.23,-5.5 0.37,-7.44 0.16,-2.24 0.34,-3.86 0.55,-4.85l0 0c0.5,-2.5 1.36,-4.87 2.57,-7.11 1.21,-2.23 2.77,-4.33 4.67,-6.29 1.93,-1.98 3.96,-3.47 6.09,-4.46l0 0c2.15,-1.01 4.38,-1.51 6.71,-1.51l1.11 0 1 0 0 1.1 0 9.16 0 0.96 -0.86 0.13c-1.59,0.25 -3.07,0.78 -4.42,1.59 -1.36,0.82 -2.62,1.93 -3.76,3.33 -1.14,1.4 -2,2.88 -2.57,4.44 -0.56,1.54 -0.84,3.17 -0.84,4.88l0 6.07 11.45 0 1 0 0 1.1 0 9.76 0 1.1 -1 0z"/>
    <polygon class="fil2" points="3447.22,550.23 3436.12,550.23 3436.12,621.81 3436.12,622.92 3435.12,622.92 3426.46,622.92 3425.46,622.92 3425.46,621.81 3425.46,550.23 3414.37,550.23 3413.37,550.23 3413.37,549.13 3413.37,539.37 3413.37,538.27 3414.37,538.27 3425.46,538.27 3425.46,509.9 3425.46,508.8 3426.46,508.8 3435.12,508.8 3436.12,508.8 3436.12,509.9 3436.12,538.27 3447.22,538.27 3448.22,538.27 3448.22,539.37 3448.22,549.13 3448.22,550.23 "/>
    <polygon class="fil2" points="3043.17,550.23 3032.07,550.23 3032.07,621.81 3032.07,622.92 3031.08,622.92 3022.41,622.92 3021.41,622.92 3021.41,621.81 3021.41,550.23 3010.32,550.23 3009.32,550.23 3009.32,549.13 3009.32,539.37 3009.32,538.27 3010.32,538.27 3021.41,538.27 3021.41,509.9 3021.41,508.8 3022.41,508.8 3031.08,508.8 3032.07,508.8 3032.07,509.9 3032.07,538.27 3043.17,538.27 3044.17,538.27 3044.17,539.37 3044.17,549.13 3044.17,550.23 "/>
   </g>
   <g>
    <path class="fil4" d="M2201.66 587.98c-0.13,3.02 -0.26,5.6 -0.26,7.9 0,20.09 10.53,27.41 35.25,27.41l32.13 0c28.49,0 39.03,-7.18 39.03,-31.14 0,-12.92 -1.82,-20.67 -8.98,-25.41 -5.46,-3.58 -13.92,-4.16 -25.75,-4.16l-33.96 0c-18.21,0 -25.76,-2.29 -25.76,-17.65 0,-14.06 6.38,-17.36 24.98,-17.36l32.26 0c17.57,0 23.42,2.44 23.42,17.5l0 1.58 11.32 0 0 -3.01c0,-9.62 -1.82,-16.36 -6.38,-20.67 -6.76,-6.17 -18.21,-6.6 -35.64,-6.6l-21.47 0c-28.62,0 -40.71,5.89 -40.71,29.14 0,21.52 9.62,28.7 34.21,28.7l39.94 0c14.83,0 20.81,2.44 20.81,17.22 0,17.51 -7.93,20.23 -30.96,20.23l-24.72 0c-19.51,0 -27.71,-3.3 -27.71,-17.5 0,-1.44 0.13,-3.45 0.26,-6.18l-11.31 0z"/>
    <polygon class="fil4" points="2345.94,622 2360.64,622 2381.72,558.28 2402.01,622 2416.71,622 2448.19,548.23 2436.49,548.23 2410.21,611.66 2389.91,548.23 2373.78,548.23 2353.36,611.66 2328.25,548.23 2316.02,548.23 "/>
    <path class="fil4" d="M2467.34 577.08c0,-14.78 6.89,-19.09 22.76,-19.09l16.52 0c16.27,0 22.77,2.73 22.77,17.37l0 1.72 -62.05 0zm39.55 -29.85l-16.66 0c-24.32,0 -33.56,9.18 -33.56,32.14l0 11.77c0,22.68 9.37,31.86 33.56,31.86l20.04 0c20.03,0 30.31,-7.6 30.31,-21.67l0 -1.87 -11.06 0 0 0.72c0,8.61 -7.02,12.49 -21.73,12.49l-17.43 0c-17.43,0 -23.02,-5.74 -23.02,-20.95l0 -4.02 73.11 0c0.13,-2.01 0.13,-3.88 0.13,-5.74 0,-26.27 -8.98,-34.73 -33.69,-34.73z"/>
    <path class="fil4" d="M2567 577.08c0,-14.78 6.9,-19.09 22.77,-19.09l16.52 0c16.26,0 22.76,2.73 22.76,17.37l0 1.72 -62.05 0zm39.55 -29.85l-16.65 0c-24.33,0 -33.57,9.18 -33.57,32.14l0 11.77c0,22.68 9.37,31.86 33.57,31.86l20.03 0c20.04,0 30.31,-7.6 30.31,-21.67l0 -1.87 -11.06 0 0 0.72c0,8.61 -7.02,12.49 -21.72,12.49l-17.43 0c-17.43,0 -23.03,-5.74 -23.03,-20.95l0 -4.02 73.11 0c0.13,-2.01 0.13,-3.88 0.13,-5.74 0,-26.27 -8.97,-34.73 -33.69,-34.73z"/>
    <polygon class="fil4" points="2685.97,550.23 2674.87,550.23 2674.87,621.81 2674.87,622.92 2673.87,622.92 2665.2,622.92 2664.21,622.92 2664.21,621.81 2664.21,550.23 2653.11,550.23 2652.11,550.23 2652.11,549.13 2652.11,539.37 2652.11,538.27 2653.11,538.27 2664.21,538.27 2664.21,509.9 2664.21,508.8 2665.2,508.8 2673.87,508.8 2674.87,508.8 2674.87,509.9 2674.87,538.27 2685.97,538.27 2686.96,538.27 2686.96,539.37 2686.96,549.13 2686.96,550.23 "/>
   </g>
   <polygon class="fil5" points="2083.39,589.71 2119.55,589.71 2119.55,579.23 2083.39,579.23 "/>
   <g>
    <path class="fil2" d="M1282.3 587.98c-0.13,3.02 -0.26,5.6 -0.26,7.9 0,20.09 10.54,27.41 35.26,27.41l32.13 0c28.49,0 39.03,-7.18 39.03,-31.14 0,-12.92 -1.82,-20.67 -8.98,-25.41 -5.46,-3.58 -13.92,-4.16 -25.76,-4.16l-33.95 0c-18.21,0 -25.76,-2.29 -25.76,-17.65 0,-14.06 6.38,-17.36 24.98,-17.36l32.26 0c17.56,0 23.42,2.44 23.42,17.5l0 1.58 11.32 0 0 -3.01c0,-9.62 -1.83,-16.36 -6.38,-20.67 -6.76,-6.17 -18.21,-6.6 -35.64,-6.6l-21.47 0c-28.62,0 -40.72,5.89 -40.72,29.14 0,21.52 9.63,28.7 34.22,28.7l39.94 0c14.83,0 20.81,2.44 20.81,17.22 0,17.51 -7.94,20.23 -30.96,20.23l-24.72 0c-19.51,0 -27.71,-3.3 -27.71,-17.5 0,-1.44 0.13,-3.45 0.26,-6.18l-11.32 0z"/>
    <path class="fil2" d="M1439.86 612.09c-18.73,0 -24.07,-4.16 -24.07,-22.96l0 -8.75c0,-18.23 5.47,-22.39 24.07,-22.39l17.43 0c18.61,0 24.2,4.16 24.2,22.39l0 8.75c0,18.8 -5.46,22.96 -24.2,22.96l-17.43 0zm-2.73 10.91l23.03 0c23.41,0 32,-9.47 32,-32.58l0 -11.62c0,-22.39 -9.11,-31.57 -32,-31.57l-23.03 0c-22.9,0 -32,9.18 -32,31.57l0 11.62c0,23.11 8.58,32.58 32,32.58z"/>
    <polygon class="fil2" points="1523.39,517.66 1512.86,517.66 1512.86,622 1523.39,622 "/>
    <path class="fil2" d="M1626.95 548.23l-10.8 0 0 45.93c0,12.77 -9.62,17.93 -29.92,17.93 -13.27,0 -21.85,-1.43 -25.76,-4.59 -3.9,-3.16 -4.42,-7.6 -4.42,-14.78l0 -44.49 -10.54 0 0 48.08c0,19.95 11.45,26.69 38.9,26.69 16.78,0 26.54,-3.01 32.39,-14.92l0 13.92 10.15 0 0 -73.77z"/>
    <path class="fil2" d="M1682 622l10.67 0 0 -73.77 -10.67 0 0 73.77zm0 -90.42l10.67 0 0 -13.92 -10.67 0 0 13.92z"/>
    <path class="fil2" d="M1746.79 612.09c-18.73,0 -24.07,-4.16 -24.07,-22.96l0 -8.75c0,-18.23 5.47,-22.39 24.07,-22.39l17.43 0c18.6,0 24.2,4.16 24.2,22.39l0 8.75c0,18.8 -5.47,22.96 -24.2,22.96l-17.43 0zm-2.73 10.91l23.02 0c23.42,0 32.01,-9.47 32.01,-32.58l0 -11.62c0,-22.39 -9.11,-31.57 -32.01,-31.57l-23.02 0c-22.9,0 -32.01,9.18 -32.01,31.57l0 11.62c0,23.11 8.59,32.58 32.01,32.58z"/>
    <path class="fil2" d="M1817.96 622l10.54 0 0 -44.06c0,-14.78 9.37,-19.81 30.96,-19.81 13.01,0 21.34,1.73 24.98,4.6 4.03,3.15 4.42,7.6 4.42,14.35l0 44.92 10.54 0 0 -48.08c0,-20.52 -10.54,-26.69 -36.95,-26.69 -18.08,0 -28.62,3.58 -33.95,14.64l0 -13.64 -10.54 0 0 73.77z"/>
    <path class="fil2" d="M1947.68 589.28l27.45 0c10.53,0 13.53,2.72 13.53,10.76 0,10.48 -2.21,12.05 -13.66,12.05l-29.92 0c-12.88,0 -17.04,-1.29 -17.04,-14.2l0 -1.3 -9.63 0c0.26,20.1 7.15,26.55 24.32,26.55l26.93 0c20.3,0 29.93,-3.73 29.93,-19.37 0,-8.18 0,-13.92 -4.56,-18.94 -4.68,-5.31 -12.36,-5.6 -24.32,-5.6l-18.22 0.14c-17.95,0 -23.29,-0.71 -23.29,-10.76 0,-9.76 5.08,-10.48 23.29,-10.48l10.41 0c16.78,0 23.94,1.15 23.94,8.9l0 3.02 10.14 0 0 -4.88c0,-12.78 -9.88,-17.8 -30.31,-17.8l-18.99 0c-21.08,0 -29.01,5.45 -29.01,21.24 0,17.94 6.89,20.67 29.01,20.67z"/>
    <polygon class="fil2" points="1671.1,550.23 1660.01,550.23 1660.01,621.81 1660.01,622.92 1659.01,622.92 1650.34,622.92 1649.35,622.92 1649.35,621.81 1649.35,550.23 1638.25,550.23 1637.25,550.23 1637.25,549.13 1637.25,539.37 1637.25,538.27 1638.25,538.27 1649.35,538.27 1649.35,509.9 1649.35,508.8 1650.34,508.8 1659.01,508.8 1660.01,508.8 1660.01,509.9 1660.01,538.27 1671.1,538.27 1672.1,538.27 1672.1,539.37 1672.1,549.13 1672.1,550.23 "/>
   </g>
   <g>
    <path class="fil4" d="M688.88 587.98c-0.13,3.02 -0.26,5.6 -0.26,7.9 0,20.09 10.53,27.41 35.25,27.41l32.13 0c28.49,0 39.03,-7.18 39.03,-31.14 0,-12.92 -1.82,-20.67 -8.98,-25.41 -5.46,-3.58 -13.92,-4.16 -25.75,-4.16l-33.96 0c-18.21,0 -25.76,-2.29 -25.76,-17.65 0,-14.06 6.38,-17.36 24.98,-17.36l32.27 0c17.56,0 23.41,2.44 23.41,17.5l0 1.58 11.32 0 0 -3.01c0,-9.62 -1.82,-16.36 -6.38,-20.67 -6.76,-6.17 -18.21,-6.6 -35.64,-6.6l-21.47 0c-28.62,0 -40.71,5.89 -40.71,29.14 0,21.52 9.62,28.7 34.21,28.7l39.94 0c14.83,0 20.81,2.44 20.81,17.22 0,17.51 -7.93,20.23 -30.96,20.23l-24.72 0c-19.51,0 -27.71,-3.3 -27.71,-17.5 0,-1.44 0.13,-3.45 0.26,-6.18l-11.31 0z"/>
    <polygon class="fil4" points="833.16,622 847.86,622 868.94,558.28 889.23,622 903.93,622 935.42,548.23 923.71,548.23 897.43,611.66 877.13,548.23 861,548.23 840.58,611.66 815.47,548.23 803.24,548.23 "/>
    <path class="fil4" d="M954.56 577.08c0,-14.78 6.89,-19.09 22.76,-19.09l16.52 0c16.27,0 22.77,2.73 22.77,17.37l0 1.72 -62.05 0zm39.55 -29.85l-16.66 0c-24.32,0 -33.56,9.18 -33.56,32.14l0 11.77c0,22.68 9.37,31.86 33.56,31.86l20.04 0c20.03,0 30.31,-7.6 30.31,-21.67l0 -1.87 -11.06 0 0 0.72c0,8.61 -7.02,12.49 -21.72,12.49l-17.44 0c-17.43,0 -23.02,-5.74 -23.02,-20.95l0 -4.02 73.11 0c0.13,-2.01 0.13,-3.88 0.13,-5.74 0,-26.27 -8.98,-34.73 -33.69,-34.73z"/>
    <path class="fil4" d="M1054.22 577.08c0,-14.78 6.9,-19.09 22.77,-19.09l16.52 0c16.26,0 22.76,2.73 22.76,17.37l0 1.72 -62.05 0zm39.55 -29.85l-16.65 0c-24.33,0 -33.57,9.18 -33.57,32.14l0 11.77c0,22.68 9.37,31.86 33.57,31.86l20.03 0c20.03,0 30.31,-7.6 30.31,-21.67l0 -1.87 -11.05 0 0 0.72c0,8.61 -7.03,12.49 -21.73,12.49l-17.43 0c-17.43,0 -23.03,-5.74 -23.03,-20.95l0 -4.02 73.11 0c0.13,-2.01 0.13,-3.88 0.13,-5.74 0,-26.27 -8.97,-34.73 -33.69,-34.73z"/>
    <polygon class="fil4" points="1173.19,550.23 1162.09,550.23 1162.09,621.81 1162.09,622.92 1161.09,622.92 1152.43,622.92 1151.43,622.92 1151.43,621.81 1151.43,550.23 1140.33,550.23 1139.33,550.23 1139.33,549.13 1139.33,539.37 1139.33,538.27 1140.33,538.27 1151.43,538.27 1151.43,509.9 1151.43,508.8 1152.43,508.8 1161.09,508.8 1162.09,508.8 1162.09,509.9 1162.09,538.27 1173.19,538.27 1174.18,538.27 1174.18,539.37 1174.18,549.13 1174.18,550.23 "/>
   </g>
  </g>
  <path class="fil6" d="M468.22 330.12c0,131.1 -106.28,237.37 -237.35,237.37 -66.6,0 -126.76,-27.46 -169.86,-71.62 55.98,74.84 145.31,123.28 245.96,123.28 169.53,0 306.95,-137.43 306.95,-306.95 0,-4.37 -0.15,-8.7 -0.33,-13.02l-466.28 0c0,-131.11 106.29,-237.38 237.37,-237.38 70.65,0 134.06,30.9 177.54,79.9 -55.06,-82.28 -148.82,-136.46 -255.25,-136.46 -169.53,0 -306.95,137.43 -306.95,306.96 0,6.02 -0.05,12.03 0.01,17.92l468.19 0z"/>
  <path class="fil7" d="M211.28 540.8c0,0 -132.64,-32.93 -132.64,-210.72l-78.61 0.04c0,0 0.13,37.67 18.67,81.97 21.83,52.14 78.44,127.19 192.58,128.71z"/>
  <path class="fil8" d="M402.34 88.45c0,0 132.63,32.94 132.63,210.73l78.62 -0.05c0,0 -0.14,-37.66 -18.68,-81.96 -21.83,-52.15 -78.44,-127.19 -192.57,-128.72z"/>
 </g>
</svg>
